#!OML:ASF F:\VICON\USERDATA\Patient Classification 1\PLAYGROUND\JustinFriday\JustinFriday.ASF
:FULLY-SPECIFIED
:DEGREES
3782
root 13.4888 28.4964 51.7613 -366.309 -186.815 -352.948
lowerback 30.5236 -2.73919 1.536
upperback 8.8002 -0.951307 -1.20824
thorax -6.87443 0.481793 -2.01597
lowerneck -2.75133 3.74542 -11.4995
upperneck -11.4933 5.81427 1.63261
head -3.74675 3.57962 2.41169
rclavicle 1.59028e-015 9.54166e-015
rhumerus 98.9593 7.06723 -80.5509
rradius 19.1419
rwrist 24.8906
rhand -30.2264 -16.7925
rfingers 7.12502
rthumb -3.53611 -46.7429
lclavicle 1.59028e-015 9.54166e-015
lhumerus 97.437 6.53489 58.0758
lradius 19.7258
lwrist -31.6037
lhand -17.3154 -0.816916
lfingers 7.12502
lthumb 8.93103 28.9741
rfemur -35.4478 1.25642 31.4589
rtibia 35.9376
rfoot -40.8234 -9.95245
rtoes 0.274613
lfemur -35.5895 3.19799 -12.6025
ltibia 39.3586
lfoot -42.9696 6.55372
ltoes 3.99194
3783
root 13.4839 28.4879 51.7846 -366.311 -186.734 -353.066
lowerback 30.8305 -2.78497 1.5986
upperback 8.79152 -0.96365 -1.1968
thorax -7.0293 0.482879 -2.03771
lowerneck -2.76908 3.60094 -11.4902
upperneck -11.4703 5.64548 1.90894
head -3.73313 3.48604 2.51308
rclavicle 1.55052e-014 7.15625e-015
rhumerus 99.168 7.11663 -80.5456
rradius 19.1899
rwrist 25.062
rhand -30.1024 -16.6481
rfingers 7.12502
rthumb -3.41632 -46.6005
lclavicle 1.55052e-014 7.15625e-015
lhumerus 97.646 6.58754 58.4694
lradius 19.5347
lwrist -32.0888
lhand -17.3231 -0.772553
lfingers 7.12502
lthumb 8.92352 29.0187
rfemur -35.5644 1.22481 31.3066
rtibia 35.9508
rfoot -40.7284 -9.87995
rtoes 0.727498
lfemur -35.6904 3.3109 -12.7735
ltibia 39.2893
lfoot -42.7078 6.24735
ltoes 4.26294
3784
root 13.4813 28.4874 51.8087 -366.321 -186.651 -353.201
lowerback 31.0708 -2.82144 1.62964
upperback 8.80679 -0.970599 -1.17165
thorax -7.12447 0.488239 -2.02704
lowerneck -2.84305 3.48102 -11.653
upperneck -11.6592 5.55453 2.4735
head -3.42571 3.41499 2.48954
rclavicle -3.18055e-015 1.27222e-014
rhumerus 99.3682 7.28597 -80.8293
rradius 19.1913
rwrist 25.5575
rhand -29.9723 -16.6241
rfingers 7.12502
rthumb -3.29072 -46.5785
lclavicle -3.18055e-015 1.27222e-014
lhumerus 98.0611 6.41155 59.6821
lradius 19.1835
lwrist -33.3387
lhand -17.1583 -0.826881
lfingers 7.12502
lthumb 9.08258 28.9576
rfemur -35.6449 1.25929 31.1084
rtibia 35.9807
rfoot -40.6854 -9.55161
rtoes 1.54041
lfemur -35.7432 3.31303 -12.9359
ltibia 39.2013
lfoot -42.3418 6.12992
ltoes 4.44377
3785
root 13.4798 28.4906 51.8248 -366.34 -186.566 -353.357
lowerback 31.2535 -2.8426 1.63309
upperback 8.79062 -0.980912 -1.15168
thorax -7.22786 0.486363 -2.00452
lowerneck -2.82755 3.32749 -11.672
upperneck -11.4787 5.35494 2.76478
head -3.36553 3.29463 2.59047
rclavicle -3.18055e-015 1.11319e-014
rhumerus 99.4674 7.44373 -81.0434
rradius 19.1677
rwrist 25.9341
rhand -29.9755 -16.6445
rfingers 7.12502
rthumb -3.29377 -46.5988
lclavicle -3.18055e-015 1.11319e-014
lhumerus 98.3466 6.19647 60.8606
lradius 18.9009
lwrist -34.5028
lhand -17.0437 -0.966228
lfingers 7.12502
lthumb 9.19319 28.8134
rfemur -35.6969 1.00085 30.9819
rtibia 35.9627
rfoot -40.5576 -9.42792
rtoes 1.15904
lfemur -35.7341 3.23486 -13.1017
ltibia 39.1361
lfoot -42.0964 5.90952
ltoes 4.75075
3786
root 13.4787 28.4961 51.8363 -366.329 -186.49 -353.442
lowerback 31.3554 -2.8622 1.67942
upperback 8.73861 -0.992413 -1.11055
thorax -7.33528 0.476339 -1.98186
lowerneck -2.6071 3.15874 -11.5185
upperneck -11.5163 5.10119 2.86575
head -3.39122 3.15606 2.60109
rclavicle 1.23246e-014 1.90833e-014
rhumerus 99.4733 7.63435 -81.2643
rradius 19.1365
rwrist 26.1838
rhand -29.9406 -16.5147
rfingers 7.12502
rthumb -3.26007 -46.4695
lclavicle 1.23246e-014 1.90833e-014
lhumerus 98.0972 6.57067 60.019
lradius 18.9371
lwrist -33.6056
lhand -17.0342 -0.788405
lfingers 7.12502
lthumb 9.20233 28.9908
rfemur -35.7356 0.669774 30.9493
rtibia 35.8739
rfoot -40.4444 -9.29666
rtoes 0.68698
lfemur -35.7506 3.12796 -13.1606
ltibia 39.1148
lfoot -41.9241 5.42252
ltoes 5.55588
3787
root 13.4798 28.5054 51.8538 -366.277 -186.424 -353.425
lowerback 31.3597 -2.89777 1.78298
upperback 8.77541 -0.988108 -1.05426
thorax -7.29688 0.483431 -1.9801
lowerneck -2.66009 3.01547 -11.4398
upperneck -11.5062 4.93363 3.03919
head -3.36772 3.06569 2.64893
rclavicle 3.18055e-015 4.37326e-014
rhumerus 99.6204 7.8605 -81.6712
rradius 19.069
rwrist 26.6411
rhand -29.8374 -16.3784
rfingers 7.12502
rthumb -3.16045 -46.3347
lclavicle 3.18055e-015 4.37326e-014
lhumerus 97.7221 7.2335 58.3059
lradius 19.1369
lwrist -32.0157
lhand -17.1495 -0.317245
lfingers 7.12502
lthumb 9.09107 29.4668
rfemur -35.7906 0.541115 30.971
rtibia 35.7654
rfoot -40.3354 -8.98499
rtoes 0.77688
lfemur -35.855 2.93623 -13.0584
ltibia 39.1082
lfoot -41.7081 5.16104
ltoes 6.15211
3788
root 13.4818 28.5093 51.8738 -366.119 -186.389 -353.141
lowerback 31.333 -2.96308 2.12836
upperback 8.78111 -0.951853 -0.914813
thorax -7.28252 0.498981 -2.03618
lowerneck -2.93365 2.91599 -11.5436
upperneck -11.2206 4.85477 3.40662
head -3.2403 3.00846 2.78868
rclavicle -1.11319e-014 -2.22639e-014
rhumerus 99.7321 8.14613 -82.2182
rradius 18.9782
rwrist 27.3956
rhand -29.7667 -16.3295
rfingers 7.12502
rthumb -3.09217 -46.2869
lclavicle -1.11319e-014 -2.22639e-014
lhumerus 97.498 7.67621 57.2362
lradius 19.2182
lwrist -31.125
lhand -17.3127 0.0904694
lfingers 7.12502
lthumb 8.93356 29.8813
rfemur -35.9566 0.529297 31.2718
rtibia 35.691
rfoot -40.1837 -8.79595
rtoes 0.99353
lfemur -36.0797 2.78027 -12.6751
ltibia 39.077
lfoot -41.4201 5.29108
ltoes 6.06158
3789
root 13.4838 28.5154 51.8911 -366.069 -186.323 -353.13
lowerback 31.4013 -2.98703 2.21257
upperback 8.76977 -0.944018 -0.837265
thorax -7.32746 0.502536 -2.00107
lowerneck -2.98475 2.79617 -11.5973
upperneck -11.2362 4.73193 3.71234
head -3.23353 2.94281 2.89623
rclavicle -1.98785e-015 -2.8625e-014
rhumerus 99.787 8.4018 -82.6126
rradius 18.8948
rwrist 28.0081
rhand -29.7897 -16.284
rfingers 7.12502
rthumb -3.11433 -46.241
lclavicle -1.98785e-015 -2.8625e-014
lhumerus 97.4241 7.88834 56.8899
lradius 19.2135
lwrist -30.6966
lhand -17.2303 0.166835
lfingers 7.12502
lthumb 9.01315 29.9543
rfemur -36.0534 0.571753 31.2259
rtibia 35.6598
rfoot -40.1416 -8.39975
rtoes 2.26693
lfemur -36.1712 2.77152 -12.6581
ltibia 39.0042
lfoot -41.1259 5.33691
ltoes 6.01182
3790
root 13.4877 28.5276 51.9096 -366.156 -186.219 -353.46
lowerback 31.5626 -2.95577 1.95107
upperback 8.78397 -0.96478 -0.854282
thorax -7.38094 0.500568 -1.86238
lowerneck -2.95593 2.69519 -11.6498
upperneck -11.2481 4.61622 3.98093
head -3.23817 2.87891 2.99055
rclavicle -2.10712e-014 -3.18055e-015
rhumerus 99.8738 8.53046 -82.6982
rradius 18.822
rwrist 28.2592
rhand -29.8244 -16.2548
rfingers 7.12502
rthumb -3.14791 -46.2113
lclavicle -2.10712e-014 -3.18055e-015
lhumerus 97.4284 7.9725 56.9726
lradius 19.126
lwrist -30.6976
lhand -17.2451 0.0317262
lfingers 7.12502
lthumb 8.99887 29.8198
rfemur -36.0469 0.660369 30.755
rtibia 35.6714
rfoot -40.1425 -7.78088
rtoes 3.82079
lfemur -36.1067 2.85396 -13.0535
ltibia 38.8999
lfoot -40.8601 5.14435
ltoes 6.1461
3791
root 13.4919 28.5361 51.9241 -366.157 -186.138 -353.578
lowerback 31.5991 -2.94891 1.89744
upperback 8.77897 -0.9643 -0.808035
thorax -7.40144 0.50165 -1.77968
lowerneck -2.9893 2.63222 -11.8273
upperneck -10.9013 4.53504 4.35391
head -3.13236 2.81256 3.13919
rclavicle -2.38542e-014 -2.14687e-014
rhumerus 99.938 8.64864 -82.7264
rradius 18.7526
rwrist 28.4413
rhand -29.729 -16.2721
rfingers 7.12502
rthumb -3.05579 -46.2299
lclavicle -2.38542e-014 -2.14687e-014
lhumerus 97.1921 8.29043 56.237
lradius 19.0963
lwrist -29.9528
lhand -17.3072 0.119801
lfingers 7.12502
lthumb 8.93887 29.9104
rfemur -36.1035 0.668654 30.5723
rtibia 35.7054
rfoot -40.1014 -7.5834
rtoes 3.90073
lfemur -36.1106 2.87863 -13.1854
ltibia 38.7927
lfoot -40.5611 4.92204
ltoes 6.34801
3792
root 13.4931 28.5405 51.9321 -366.104 -186.073 -353.557
lowerback 31.5191 -2.97263 2.00573
upperback 8.74583 -0.969592 -0.732467
thorax -7.40382 0.492169 -1.75485
lowerneck -2.9296 2.48483 -11.8479
upperneck -10.6657 4.32629 4.63541
head -3.05846 2.68496 3.23588
rclavicle -5.56597e-015 -2.38542e-015
rhumerus 99.9198 8.7895 -82.7519
rradius 18.679
rwrist 28.5604
rhand -29.6567 -16.3122
rfingers 7.12502
rthumb -2.98594 -46.271
lclavicle -5.56597e-015 -2.38542e-015
lhumerus 96.8351 8.56525 55.4694
lradius 19.1549
lwrist -29.0429
lhand -17.17 0.278907
lfingers 7.12502
lthumb 9.07131 30.0638
rfemur -36.1841 0.518714 30.6038
rtibia 35.7034
rfoot -40.066 -7.61679
rtoes 2.79409
lfemur -36.1773 2.73696 -13.1293
ltibia 38.7324
lfoot -40.2722 4.88201
ltoes 6.24229
3793
root 13.492 28.5449 51.9374 -366.052 -186.007 -353.542
lowerback 31.3839 -3.00998 2.16223
upperback 8.71059 -0.985134 -0.676102
thorax -7.38481 0.476285 -1.77557
lowerneck -1.60051 1.81247 -11.2196
upperneck -12.4817 3.37511 4.58245
head -3.7278 2.26005 3.1241
rclavicle 2.14687e-014 -1.66979e-014
rhumerus 99.828 8.86869 -82.6326
rradius 18.6347
rwrist 28.5239
rhand -29.6087 -16.3911
rfingers 7.12502
rthumb -2.93959 -46.3506
lclavicle 2.14687e-014 -1.66979e-014
lhumerus 96.9702 8.14533 56.9349
lradius 18.9558
lwrist -30.3439
lhand -17.1137 0.041858
lfingers 7.12502
lthumb 9.12566 29.8244
rfemur -36.237 0.367895 30.6215
rtibia 35.644
rfoot -39.9457 -7.71596
rtoes 1.65795
lfemur -36.2509 2.50332 -13.0683
ltibia 38.737
lfoot -40.0862 4.92506
ltoes 6.15799
